<svg width="50" height="141" viewBox="0 0 50 141" fill="#0C79B8" preserveAspectRatio="xMidYMid meet"  xmlns="http://www.w3.org/2000/svg">
<path d="M21.9512 44.2522L34.1569 0L50 51.0347L21.9512 44.2522Z" fill="#0C79B8"/>
<path d="M17.0508 115.581L49.7105 65.0906L29.904 141L17.0508 115.581Z" fill="#0C79B8"/>
<path d="M18.4854 53.8939C20.6917 65.6251 22.7746 76.7004 24.9876 88.4727L0 74.348C4.19182 64.7668 8.28546 55.4093 12.7053 45.2971C13.6923 50.0022 14.5147 53.9279 15.3545 57.9392L16.0454 61.2398L18.4854 53.8939Z" fill="#0C79B8"/>
<path d="M22.3462 50.3867L49.5497 56.8282L29.403 88.2975C28.4713 83.2933 27.5614 78.4044 26.6564 73.5406C25.2302 65.8768 23.8157 58.2759 22.3462 50.3867Z" fill="#0C79B8"/>
<path d="M24.734 95.0191L14.8407 110.624C13.2689 107.355 11.7231 104.138 10.1945 100.957C7.05736 94.4297 3.99323 88.0538 0.928751 81.6924L24.734 95.0191Z" fill="#0C79B8"/>
</svg>
