<svg width="1440" height="1818" viewBox="0 0 1440 1818" fill="white" xmlns="http://www.w3.org/2000/svg">
<g style="mix-blend-mode:difference" opacity="0.1">
<path d="M1763.3 1674.4L1485.75 1674.4C1480.71 1674.4 1475.87 1672.39 1472.3 1668.83L1382.73 1579.3M431.289 770.947L431.289 647.317C431.289 636.813 439.809 628.297 450.318 628.297L621.577 628.297M431.289 770.947L431.289 810.619C431.289 815.663 429.284 820.501 425.716 824.068L341.719 908.027C338.15 911.594 336.146 916.431 336.146 921.476L336.146 1083.83M431.289 770.947L621.577 770.947M431.289 770.947L323.096 770.947C318.049 770.947 313.209 768.943 309.641 765.376L199.615 655.4M1097.77 628.297L1184.56 628.297C1189.6 628.297 1194.44 630.301 1198.01 633.868L1282.01 717.826C1285.58 721.393 1287.58 726.231 1287.58 731.275L1287.58 913.597M1097.77 628.297L1002.15 628.297M1097.77 628.297L1097.77 532.721M1097.77 628.297L1097.77 810.24C1097.77 815.507 1099.94 820.525 1103.79 824.13C1138.96 857.128 1197.94 913.597 1192.91 913.597M1002.15 628.297L621.577 628.297M1002.15 628.297L1002.15 770.947M621.577 628.297L621.577 625.206M621.577 628.297L621.577 770.947M1002.15 1103.8L1002.15 1191.02C1002.15 1196.06 1000.15 1200.9 996.578 1204.47L912.581 1288.43C909.013 1291.99 904.173 1294 899.126 1294L740.031 1294M1002.15 1103.8L747.913 1103.8C742.866 1103.8 738.026 1101.79 734.457 1098.23L621.577 985.398M1002.15 1103.8L1097.77 1008.46M1002.15 1103.8L1002.15 770.947M1477.87 913.597L1567.44 824.068C1571.01 820.501 1573.01 815.663 1573.01 810.619L1573.01 508.946M1477.87 913.597L1426.02 913.597M1477.87 913.597L1477.87 1204.49M1573.01 508.946L1573.01 170.865C1573.01 160.361 1564.49 151.845 1553.99 151.845L1430.3 151.845M1573.01 508.946L1426.02 508.946M1573.01 508.946L1779 508.946M1287.58 241.715L1287.58 170.865C1287.58 160.361 1296.1 151.845 1306.61 151.845L1430.3 151.845M1287.58 241.715L1287.58 335.118C1287.58 340.162 1285.58 345 1282.01 348.567L1192.68 437.859M1287.58 241.715L1112.52 241.715M1287.58 241.715L1406.99 241.715C1417.5 241.715 1426.02 250.23 1426.02 260.735L1426.02 508.946M1097.77 532.721L1192.68 437.859M1097.77 532.721L1279.7 532.721C1284.75 532.721 1289.59 530.717 1293.16 527.15L1305.8 514.517C1309.36 510.95 1314.2 508.946 1319.25 508.946L1426.02 508.946M1192.91 913.597L1287.58 913.597M1192.91 913.597L1097.77 1008.46M1192.68 437.859L1000.84 437.859M621.577 625.206L621.577 362.016C621.577 351.512 613.057 342.997 602.548 342.997L383.718 342.997M621.577 625.206C621.577 627.238 739.403 508.374 803.432 443.511C807.009 439.887 811.877 437.859 816.969 437.859L1000.84 437.859M740.031 1294L640.606 1294C630.096 1294 621.577 1285.48 621.577 1274.98L621.577 1178.93M740.031 1294L740.031 1400.51M199.615 342.997L164.887 342.997C154.378 342.997 145.858 351.512 145.858 362.016L145.858 655.4M199.615 342.997L383.718 342.997M199.615 342.997L199.615 655.4M199.615 342.997L199.615 -91.1358M383.718 342.997L251.333 210.672C247.764 207.105 245.759 202.267 245.759 197.223L245.759 41.5289M245.759 -91.1358L690.08 -91.1358C700.589 -91.1358 709.109 -82.6204 709.109 -72.1159L709.109 41.5289M245.759 -91.1358L245.759 41.5289M245.759 -91.1358L199.615 -91.1358M709.109 41.5289L709.109 143.967C709.109 149.011 711.114 153.849 714.682 157.416L793.446 236.144C797.015 239.711 801.855 241.715 806.902 241.715L920.209 241.715M709.109 41.5289L920.209 41.5288M709.109 41.5289L245.759 41.5289M1287.58 913.597L1426.02 913.597M1287.58 913.597L1287.58 1204.49M1426.02 913.597L1426.02 508.946M920.209 241.715L1112.52 241.715M920.209 241.715L920.209 349.383C920.209 354.427 922.214 359.265 925.783 362.832L1000.84 437.859M920.209 241.715L920.209 41.5288M1112.52 241.715L1112.52 159.723C1112.52 154.679 1110.51 149.841 1106.94 146.274L1007.72 47.0998C1004.16 43.5328 999.316 41.5288 994.27 41.5288L920.209 41.5288M920.209 41.5288L920.209 -152M336.146 1083.83L336.146 1274.98C336.146 1285.48 327.626 1294 317.117 1294L164.887 1294C154.378 1294 145.858 1285.48 145.858 1274.98L145.858 1151.23M336.146 1083.83L425.716 1173.36C429.284 1176.92 434.125 1178.93 439.171 1178.93L517.87 1178.93M621.577 1178.93L621.577 985.398M621.577 1178.93L517.87 1178.93M621.577 770.947L621.577 985.398M621.577 770.947L1002.15 770.947M199.615 655.4L145.858 655.4M199.615 -91.1358L199.615 -152M199.615 -91.1358L138.723 -91.1358C128.213 -91.1358 119.694 -82.6203 119.694 -72.1159L119.694 81.6761C119.694 86.7205 117.689 91.5584 114.12 95.1253L49.7631 159.453M740.031 1783.29L740.031 1579.3M740.031 1579.3L740.031 1400.51M740.031 1579.3L344.028 1579.3C338.981 1579.3 334.141 1581.3 330.572 1584.87L246.576 1668.83C243.007 1672.39 241.002 1677.23 241.002 1682.28L241.002 1818M740.031 1400.51L1097.77 1400.51M740.031 1400.51L517.87 1400.51M1382.73 1579.3L1293.16 1489.77C1289.59 1486.2 1287.58 1481.36 1287.58 1476.32L1287.58 1389.1M1382.73 1579.3L1200.8 1579.3C1195.75 1579.3 1190.91 1577.29 1187.34 1573.73L1103.34 1489.77C1099.78 1486.2 1097.77 1481.36 1097.77 1476.32L1097.77 1400.51M1097.77 1008.46L1097.77 1204.49M1287.58 1294L1287.58 1204.49M1287.58 1294L1458.84 1294C1469.35 1294 1477.87 1285.48 1477.87 1274.98L1477.87 1204.49M1287.58 1294L1287.58 1389.1M1287.58 1204.49L1097.77 1204.49M1287.58 1204.49L1477.87 1204.49M1477.87 1204.49L1573.01 1204.49M1430.3 151.845L1430.3 -146.77M145.858 1008.46L145.858 655.4M145.858 1008.46L-1.13871 1008.46C-11.648 1008.46 -20.1674 999.945 -20.1674 989.44L-20.1674 655.4M145.858 1008.46L145.858 1151.23M145.858 655.4L-20.1674 655.4M-20.1674 655.4L-20.1674 237.23C-20.1674 232.186 -18.1626 227.348 -14.5941 223.781L49.7631 159.453M-20.1674 655.4L-141 655.4M145.858 1151.23L79.0525 1151.23C74.0057 1151.23 69.1657 1153.23 65.5971 1156.8L-113.543 1335.86C-117.112 1339.43 -119.117 1344.26 -119.117 1349.31L-119.117 1459.68C-119.117 1464.72 -117.112 1469.56 -113.543 1473.13L-19.0807 1567.55C-15.5121 1571.11 -10.6721 1573.12 -5.62538 1573.12L101.141 1573.12M517.87 1178.93L517.87 1400.51M1097.77 1400.51L1097.77 1204.49M517.87 1400.51L517.87 1465.18C517.87 1475.68 509.351 1484.2 498.842 1484.2L317.388 1484.2C312.341 1484.2 307.501 1486.2 303.932 1489.77L226.119 1567.55C222.551 1571.11 217.711 1573.12 212.664 1573.12L101.141 1573.12M1287.58 1389.1L1553.99 1389.1C1564.49 1389.1 1573.01 1380.58 1573.01 1370.08L1573.01 1204.49M1573.01 1204.49L1763.3 1204.49M49.7631 159.453L-28.9356 159.453C-33.9823 159.453 -38.8225 157.449 -42.3911 153.882L-78.3403 117.949C-81.9089 114.382 -83.9138 109.545 -83.9138 104.5L-83.9138 -152M101.141 1573.12L55.3367 1618.9C51.7681 1622.47 46.9279 1624.47 41.8812 1624.47L-138.146 1624.47" stroke="#606060" stroke-width="10"/>
</g>
</svg>
